<svg width="25" height="25" viewBox="0 0 25 25" fill="none" xmlns="http://www.w3.org/2000/svg">
<g id="Icon - Heart">
<path id="Vector" d="M9.14281 3.12358C9.77281 3.14274 10.3828 3.25274 10.9738 3.45374H11.0328C11.0728 3.47274 11.1028 3.49374 11.1228 3.51274C11.3438 3.58374 11.5528 3.66374 11.7528 3.77374L12.1328 3.94374C12.2828 4.02374 12.4628 4.17273 12.5628 4.23373C12.6628 4.29273 12.7728 4.35373 12.8628 4.42273C13.9738 3.57373 15.3228 3.11374 16.7128 3.12358C17.3438 3.12358 17.9738 3.21274 18.5728 3.41374C22.2638 4.61374 23.5938 8.66374 22.4828 12.2037C21.8528 14.0127 20.8228 15.6637 19.4738 17.0127C17.5428 18.8827 15.4238 20.5427 13.1428 21.9727L12.8928 22.1237L12.6328 21.9627C10.3438 20.5427 8.21281 18.8827 6.26381 17.0027C4.92381 15.6537 3.89281 14.0127 3.25281 12.2037C2.12281 8.66374 3.45281 4.61373 7.18381 3.39274C7.47381 3.29274 7.77281 3.22274 8.07281 3.18374H8.19281C8.47381 3.14274 8.75281 3.12358 9.03281 3.12358H9.14281ZM18.0528 6.28374C17.6428 6.14274 17.1928 6.36373 17.0428 6.78374C16.9028 7.20373 17.1228 7.66373 17.5428 7.81274C18.1838 8.05273 18.6128 8.68373 18.6128 9.38273V9.41373C18.5938 9.64274 18.6628 9.86373 18.8028 10.0337C18.9428 10.2037 19.1528 10.3027 19.3728 10.3237C19.7828 10.3127 20.1328 9.98374 20.1628 9.56274V9.44373C20.1928 8.04273 19.3438 6.77374 18.0528 6.28374Z" fill="#201D25" fill-opacity="0.26"/>
</g>
</svg>
